<?xml version="1.0" encoding="UTF-8"?>
<svg width="113px" height="114px" viewBox="0 0 113 114" version="1.1" xmlns="http://www.w3.org/2000/svg" xmlns:xlink="http://www.w3.org/1999/xlink">
    <defs>
        <linearGradient x1="84.2519551%" y1="61.2454063%" x2="22.0475025%" y2="39.8665987%" id="linearGradient-1">
            <stop stop-color="#002C73" offset="0%"></stop>
            <stop stop-color="#002C73" offset="100%"></stop>
        </linearGradient>
        <linearGradient x1="84.2487056%" y1="61.2454063%" x2="22.0501544%" y2="39.8665987%" id="linearGradient-2">
            <stop stop-color="#002C73" offset="0%"></stop>
            <stop stop-color="#002C73" offset="100%"></stop>
        </linearGradient>
    </defs>
    <g stroke="none" stroke-width="1" fill="none" fill-rule="evenodd">
        <g transform="translate(-117.000000, -132.000000)" fill-rule="nonzero">
            <g transform="translate(117.000000, 132.000000)">
                <path d="M56.3868015,29.9110121 L5.4653825,69.4190096 C4.5926785,70.0961075 4.4341085,71.3524702 5.1112064,72.2251742 C5.2095786,72.3519651 5.3228535,72.4664554 5.4485872,72.5661753 L56.3698604,112.952013 C57.1027832,113.533296 58.1407234,113.528893 58.8686884,112.941413 L108.912152,72.5554601 C109.771725,71.8617692 109.9062,70.6025995 109.212509,69.743026 C109.118836,69.6269529 109.012472,69.5217229 108.895402,69.429299 L58.8520843,29.9214169 C58.1304116,29.3516753 57.1132576,29.3473824 56.3868015,29.9110121 Z" id="Path-2" fill="url(#linearGradient-1)" opacity="0.1"></path>
                <path d="M56.6291688,18.5181502 L5.4541001,58.2229449 C4.5813961,58.9000428 4.4228261,60.1564055 5.099924,61.0291094 C5.1982962,61.1559003 5.3115711,61.2703907 5.4373048,61.3701106 L56.6122277,101.957118 C57.3451505,102.538402 58.3830907,102.533999 59.1110557,101.946519 L109.403795,61.3593954 C110.263369,60.6657044 110.397843,59.4065348 109.704152,58.5469613 C109.610479,58.4308881 109.504116,58.3256581 109.387045,58.2332343 L59.0944516,18.528555 C58.3727789,17.9588134 57.3556249,17.9545204 56.6291688,18.5181502 Z" id="Path-2" fill="url(#linearGradient-2)" opacity="0.3"></path>
                <path d="M55.763287,0.9595187 L1.0143757,43.4371223 C0.1416717,44.1142202 -0.0168983,45.3705829 0.6601996,46.2432868 C0.7585719,46.3700777 0.8718467,46.4845681 0.9975805,46.584288 L55.7463459,90.005723 C56.4792687,90.587006 57.5172089,90.582603 58.2451739,89.995123 L112.050138,46.5735728 C112.909712,45.8798819 113.044186,44.6207122 112.350495,43.7611387 C112.256822,43.6450655 112.150458,43.5398355 112.033388,43.4474117 L58.2285698,0.9699235 C57.506897,0.4001819 56.4897431,0.395889 55.763287,0.9595187 Z" id="Path-2" fill="#002C73"></path>
                <path d="M54.3814704,66.4151606 L60.0178113,61.8036089 C60.4452561,61.4538813 60.5082584,60.8238586 60.1585308,60.3964138 C60.108649,60.3354471 60.0517382,60.2805879 59.9889819,60.232977 L41.8561758,46.4762693 C41.4879517,46.196911 40.9762536,46.2063033 40.6185296,46.4989866 L34.9821887,51.1105383 C34.5547439,51.4602658 34.4917416,52.0902885 34.8414692,52.5177334 C34.891351,52.5787001 34.9482618,52.6335593 35.0110181,52.6811702 L53.1438242,66.4378779 C53.5120483,66.7172362 54.0237464,66.7078439 54.3814704,66.4151606 Z" id="Path-3" fill="#FFFFFF"></path>
                <path d="M79.1141144,47.890308 L84.7450273,43.2831974 C85.1724721,42.9334698 85.2354744,42.3034471 84.8857468,41.8760023 C84.8329551,41.8114791 84.772302,41.7538108 84.7051991,41.7043395 L60.5949592,23.9291685 C60.227056,23.6579335 59.7220714,23.6706722 59.3683118,23.9601118 L53.7373989,28.5672224 C53.3099541,28.91695 53.2469518,29.5469727 53.5966794,29.9744175 C53.6494711,30.0389407 53.7101242,30.0966091 53.7772271,30.1460804 L77.887467,47.9212514 C78.2553702,48.1924864 78.7603548,48.1797476 79.1141144,47.890308 Z" id="Path-3-Copy-2" fill="#FFFFFF"></path>
                <path d="M66.0562636,56.9226723 L71.6780283,52.3230467 C72.1054731,51.9733191 72.1684754,51.3432964 71.8187478,50.9158516 C71.761415,50.8457782 71.6948314,50.7838155 71.6208223,50.7316621 L61,42.5 C60.6328824,42.2412964 60.1383251,42.2590744 59.7907304,42.54347 L54.1689658,47.1430957 C53.741521,47.4928232 53.6785187,48.1228459 54.0282463,48.5502907 C54.0855791,48.6203642 54.1521627,48.6823269 54.2261718,48.7344803 L64.8469941,56.9661423 C65.2141117,57.2248459 65.708669,57.2070679 66.0562636,56.9226723 Z" id="Path-3-Copy" fill="#FFFFFF"></path>
            </g>
        </g>
    </g>
</svg>